<?xml version="1.0" encoding="utf-8"?>
<!-- Generator: Adobe Illustrator 16.0.0, SVG Export Plug-In . SVG Version: 6.00 Build 0)  -->
<!DOCTYPE svg PUBLIC "-//W3C//DTD SVG 1.1//EN" "http://www.w3.org/Graphics/SVG/1.1/DTD/svg11.dtd">
<svg version="1.1" id="Layer_1" xmlns="http://www.w3.org/2000/svg" xmlns:xlink="http://www.w3.org/1999/xlink" x="0px" y="0px"
	 width="200px" height="200px" viewBox="0 0 200 200" enable-background="new 0 0 200 200" xml:space="preserve">
<circle fill="#FF742B" cx="104.274" cy="100" r="79.794"/>
<g>
	<path fill="#FFFFFF" d="M38.153,150.368c2.557,1.573,6.294,2.885,10.229,2.885c5.835,0,9.245-3.081,9.245-7.54
		c0-4.131-2.361-6.491-8.327-8.786c-7.212-2.557-11.671-6.294-11.671-12.523c0-6.884,5.704-11.998,14.293-11.998
		c4.524,0,7.803,1.049,9.77,2.163l-1.574,4.655c-1.442-0.786-4.393-2.098-8.393-2.098c-6.032,0-8.327,3.606-8.327,6.622
		c0,4.131,2.688,6.163,8.786,8.523c7.475,2.885,11.278,6.491,11.278,12.982c0,6.819-5.049,12.72-15.474,12.72
		c-4.262,0-8.917-1.245-11.277-2.819L38.153,150.368z"/>
	<path fill="#FFFFFF" d="M80.965,157.318L66.54,113.126h6.164l6.884,21.769c1.901,5.967,3.541,11.343,4.721,16.522h0.131
		c1.246-5.114,3.082-10.688,5.049-16.457l7.475-21.834h6.097l-15.801,44.192H80.965z"/>
	<path fill="#FFFFFF" d="M141.479,155.352c-2.558,0.918-7.605,2.426-13.572,2.426c-6.688,0-12.195-1.705-16.523-5.836
		c-3.803-3.671-6.163-9.572-6.163-16.457c0.065-13.179,9.114-22.817,23.932-22.817c5.114,0,9.114,1.115,11.016,2.033l-1.377,4.655
		c-2.36-1.05-5.311-1.902-9.77-1.902c-10.753,0-17.769,6.688-17.769,17.77c0,11.212,6.753,17.834,17.048,17.834
		c3.737,0,6.294-0.524,7.605-1.181v-13.179h-8.982v-4.59h14.556V155.352z"/>
</g>
</svg>